<svg width="800" height="400" viewBox="0 0 800 400" xmlns="http://www.w3.org/2000/svg"><mask id="satori_om-id"><rect x="0" y="0" width="800" height="400" fill="#fff"/></mask><rect x="0" y="0" width="800" height="400" fill="#fff"/><mask id="satori_om-id-0"><rect x="0" y="108" width="800" height="184" fill="#fff"/></mask><rect x="0" y="108" width="800" height="184" fill="#f9fafb"/><mask id="satori_om-id-0-0"><rect x="0" y="108" width="800" height="184" fill="#fff"/></mask><mask id="satori_om-id-0-0-0"><rect x="32" y="160" width="320" height="80" fill="#fff"/></mask><mask id="satori_om-id-0-0-0-0"><rect x="32" y="160" width="320" height="40" fill="#fff"/></mask><path fill="#0f172a" d="M58.3 180L58.3 180Q58.3 184.3 56.7 187.3Q55.1 190.3 52.3 191.9Q49.5 193.4 46.1 193.4L46.1 193.4Q42.6 193.4 39.8 191.9Q37.0 190.3 35.4 187.3Q33.8 184.3 33.8 180L33.8 180Q33.8 175.7 35.4 172.7Q37.0 169.7 39.8 168.1Q42.6 166.6 46.1 166.6L46.1 166.6Q49.5 166.6 52.3 168.1Q55.1 169.7 56.7 172.7Q58.3 175.7 58.3 180ZM52.7 180L52.7 180Q52.7 177.2 51.9 175.3Q51.1 173.4 49.6 172.4Q48.1 171.4 46.1 171.4L46.1 171.4Q44.1 171.4 42.6 172.4Q41.1 173.4 40.3 175.3Q39.4 177.2 39.4 180L39.4 180Q39.4 182.8 40.3 184.7Q41.1 186.6 42.6 187.6Q44.1 188.6 46.1 188.6L46.1 188.6Q48.1 188.6 49.6 187.6Q51.1 186.6 51.9 184.7Q52.7 182.8 52.7 180ZM61.4 166.9L66.9 166.9L66.9 193.1L61.4 193.1L61.4 166.9ZM75.9 193.5L75.9 193.5Q74.0 193.5 72.6 192.8Q71.1 192.1 70.2 190.8Q69.4 189.5 69.4 187.6L69.4 187.6Q69.4 186.0 70.0 184.9Q70.6 183.7 71.6 183.1Q72.7 182.4 74.0 182.0Q75.3 181.7 76.8 181.6L76.8 181.6Q78.5 181.4 79.5 181.2Q80.6 181.1 81.1 180.7Q81.5 180.4 81.5 179.8L81.5 179.8L81.5 179.7Q81.5 178.5 80.8 177.8Q80.0 177.2 78.6 177.2L78.6 177.2Q77.1 177.2 76.3 177.8Q75.4 178.5 75.1 179.4L75.1 179.4L70.1 179.0Q70.5 177.2 71.6 175.9Q72.7 174.6 74.5 173.9Q76.3 173.2 78.6 173.2L78.6 173.2Q80.3 173.2 81.8 173.6Q83.3 174.0 84.4 174.8Q85.6 175.6 86.3 176.8Q87.0 178.1 87.0 179.8L87.0 179.8L87.0 193.1L81.8 193.1L81.8 190.4L81.7 190.4Q81.2 191.3 80.4 192.0Q79.6 192.7 78.5 193.1Q77.4 193.5 75.9 193.5ZM77.5 189.7L77.5 189.7Q78.7 189.7 79.6 189.2Q80.5 188.7 81.0 187.9Q81.6 187.1 81.6 186.1L81.6 186.1L81.6 184.0Q81.3 184.2 80.9 184.3Q80.4 184.4 79.9 184.5Q79.3 184.6 78.8 184.7Q78.2 184.8 77.8 184.9L77.8 184.9Q76.8 185.0 76.1 185.3Q75.4 185.6 75.0 186.1Q74.6 186.7 74.6 187.4L74.6 187.4Q74.6 188.5 75.4 189.1Q76.2 189.7 77.5 189.7ZM80.7 170.9L76.9 170.9L79.6 165.1L84.6 165.1L80.7 170.9ZM91.7 189.5L96.2 189.5L96.1 190.9Q95.9 192.6 95.5 194.3Q95.0 196.0 94.5 197.3Q94.0 198.7 93.7 199.5L93.7 199.5L90.1 199.5Q90.3 198.7 90.7 197.4Q91.0 196.0 91.3 194.4Q91.6 192.7 91.7 190.9L91.7 190.9L91.7 189.5Z M113.2 193.1L107.8 193.1L107.8 173.5L112.9 173.5L112.9 176.9L113.2 176.9Q113.8 175.2 115.2 174.2Q116.7 173.2 118.7 173.2L118.7 173.2Q120.7 173.2 122.1 174.2Q123.5 175.2 124.0 176.9L124.0 176.9L124.2 176.9Q124.8 175.2 126.4 174.2Q127.9 173.2 130.1 173.2L130.1 173.2Q132.9 173.2 134.6 174.9Q136.3 176.7 136.3 179.9L136.3 179.9L136.3 193.1L130.9 193.1L130.9 181.0Q130.9 179.3 130.0 178.5Q129.1 177.7 127.8 177.7L127.8 177.7Q126.3 177.7 125.5 178.6Q124.7 179.6 124.7 181.1L124.7 181.1L124.7 193.1L119.4 193.1L119.4 180.8Q119.4 179.4 118.6 178.5Q117.7 177.7 116.4 177.7L116.4 177.7Q115.5 177.7 114.8 178.1Q114.0 178.6 113.6 179.4Q113.2 180.2 113.2 181.3L113.2 181.3L113.2 193.1ZM148.6 193.5L148.6 193.5Q145.6 193.5 143.4 192.2Q141.2 191.0 140.1 188.7Q138.9 186.5 138.9 183.4L138.9 183.4Q138.9 180.3 140.1 178.0Q141.2 175.8 143.4 174.5Q145.5 173.2 148.4 173.2L148.4 173.2Q150.4 173.2 152.0 173.8Q153.7 174.4 155.0 175.7Q156.2 176.9 156.9 178.8Q157.6 180.7 157.6 183.2L157.6 183.2L157.6 184.7L141.1 184.7L141.1 181.3L152.5 181.3Q152.5 180.1 152.0 179.2Q151.5 178.3 150.6 177.8Q149.7 177.3 148.5 177.3L148.5 177.3Q147.3 177.3 146.3 177.8Q145.4 178.4 144.8 179.4Q144.3 180.3 144.3 181.5L144.3 181.5L144.3 184.7Q144.3 186.1 144.8 187.2Q145.4 188.3 146.4 188.8Q147.4 189.4 148.7 189.4L148.7 189.4Q149.6 189.4 150.4 189.2Q151.1 188.9 151.7 188.4Q152.2 187.9 152.5 187.1L152.5 187.1L157.5 187.5Q157.2 189.3 156.0 190.6Q154.8 192.0 152.9 192.7Q151.1 193.5 148.6 193.5Z M176.6 193.5L176.6 193.5Q173.6 193.5 171.4 192.2Q169.3 190.9 168.1 188.6Q167.0 186.3 167.0 183.3L167.0 183.3Q167.0 180.3 168.1 178.1Q169.3 175.8 171.5 174.5Q173.6 173.2 176.6 173.2L176.6 173.2Q179.2 173.2 181.1 174.1Q183.0 175.1 184.2 176.8Q185.3 178.4 185.4 180.7L185.4 180.7L180.3 180.7Q180.0 179.2 179.1 178.3Q178.2 177.4 176.7 177.4L176.7 177.4Q175.4 177.4 174.5 178.1Q173.5 178.8 173.0 180.1Q172.5 181.4 172.5 183.3L172.5 183.3Q172.5 185.2 173.0 186.5Q173.5 187.8 174.5 188.5Q175.4 189.2 176.7 189.2L176.7 189.2Q177.6 189.2 178.4 188.8Q179.1 188.4 179.6 187.7Q180.1 186.9 180.3 185.9L180.3 185.9L185.4 185.9Q185.3 188.1 184.2 189.9Q183.1 191.6 181.2 192.5Q179.2 193.5 176.6 193.5ZM193.4 181.7L193.4 181.7L193.4 193.1L188.0 193.1L188.0 166.9L193.3 166.9L193.3 176.9L193.5 176.9Q194.2 175.2 195.7 174.2Q197.2 173.2 199.4 173.2L199.4 173.2Q201.4 173.2 203.0 174.1Q204.5 175.0 205.3 176.6Q206.2 178.3 206.2 180.6L206.2 180.6L206.2 193.1L200.7 193.1L200.7 181.6Q200.7 179.7 199.8 178.7Q198.9 177.7 197.2 177.7L197.2 177.7Q196.1 177.7 195.3 178.2Q194.4 178.7 193.9 179.6Q193.5 180.5 193.4 181.7ZM215.2 193.5L215.2 193.5Q213.3 193.5 211.8 192.8Q210.4 192.1 209.5 190.8Q208.7 189.5 208.7 187.6L208.7 187.6Q208.7 186.0 209.3 184.9Q209.9 183.7 210.9 183.1Q211.9 182.4 213.2 182.0Q214.6 181.7 216.0 181.6L216.0 181.6Q217.7 181.4 218.8 181.2Q219.8 181.1 220.3 180.7Q220.8 180.4 220.8 179.8L220.8 179.8L220.8 179.7Q220.8 178.5 220.0 177.8Q219.3 177.2 217.9 177.2L217.9 177.2Q216.4 177.2 215.5 177.8Q214.7 178.5 214.4 179.4L214.4 179.4L209.3 179.0Q209.7 177.2 210.8 175.9Q212.0 174.6 213.8 173.9Q215.5 173.2 217.9 173.2L217.9 173.2Q219.5 173.2 221.0 173.6Q222.5 174.0 223.7 174.8Q224.9 175.6 225.6 176.8Q226.2 178.1 226.2 179.8L226.2 179.8L226.2 193.1L221.1 193.1L221.1 190.4L220.9 190.4Q220.4 191.3 219.6 192.0Q218.9 192.7 217.7 193.1Q216.6 193.5 215.2 193.5ZM216.7 189.7L216.7 189.7Q217.9 189.7 218.9 189.2Q219.8 188.7 220.3 187.9Q220.8 187.1 220.8 186.1L220.8 186.1L220.8 184.0Q220.6 184.2 220.1 184.3Q219.7 184.4 219.1 184.5Q218.6 184.6 218.0 184.7Q217.5 184.8 217.0 184.9L217.0 184.9Q216.1 185.0 215.4 185.3Q214.6 185.6 214.3 186.1Q213.9 186.7 213.9 187.4L213.9 187.4Q213.9 188.5 214.7 189.1Q215.5 189.7 216.7 189.7ZM235.0 193.1L229.6 193.1L229.6 173.5L234.8 173.5L234.8 176.9L235.0 176.9Q235.6 175.2 237.0 174.2Q238.5 173.2 240.5 173.2L240.5 173.2Q242.5 173.2 243.9 174.2Q245.3 175.2 245.8 176.9L245.8 176.9L246.0 176.9Q246.6 175.2 248.2 174.2Q249.7 173.2 251.9 173.2L251.9 173.2Q254.7 173.2 256.4 174.9Q258.1 176.7 258.1 179.9L258.1 179.9L258.1 193.1L252.7 193.1L252.7 181.0Q252.7 179.3 251.8 178.5Q250.9 177.7 249.6 177.7L249.6 177.7Q248.1 177.7 247.3 178.6Q246.5 179.6 246.5 181.1L246.5 181.1L246.5 193.1L241.2 193.1L241.2 180.8Q241.2 179.4 240.4 178.5Q239.5 177.7 238.2 177.7L238.2 177.7Q237.3 177.7 236.6 178.1Q235.8 178.6 235.4 179.4Q235.0 180.2 235.0 181.3L235.0 181.3L235.0 193.1ZM270.4 193.5L270.4 193.5Q267.4 193.5 265.2 192.2Q263.0 190.9 261.9 188.6Q260.7 186.4 260.7 183.3L260.7 183.3Q260.7 180.3 261.9 178.0Q263.0 175.7 265.2 174.5Q267.4 173.2 270.4 173.2L270.4 173.2Q273.3 173.2 275.5 174.5Q277.7 175.7 278.9 178.0Q280.0 180.3 280.0 183.3L280.0 183.3Q280.0 186.4 278.9 188.6Q277.7 190.9 275.5 192.2Q273.3 193.5 270.4 193.5ZM270.4 189.3L270.4 189.3Q271.7 189.3 272.7 188.5Q273.6 187.7 274.0 186.4Q274.5 185.0 274.5 183.3L274.5 183.3Q274.5 181.6 274.0 180.3Q273.6 178.9 272.7 178.1Q271.7 177.4 270.4 177.4L270.4 177.4Q269.0 177.4 268.1 178.1Q267.2 178.9 266.7 180.3Q266.2 181.6 266.2 183.3L266.2 183.3Q266.2 185.0 266.7 186.4Q267.2 187.7 268.1 188.5Q269.0 189.3 270.4 189.3Z "/><mask id="satori_om-id-0-0-0-1"><rect x="32" y="200" width="320" height="40" fill="#fff"/></mask><path fill="#7dd3fc" d="M51.0 233.1L34.3 233.1L34.3 206.9L39.8 206.9L39.8 228.5L51.0 228.5L51.0 233.1ZM66.3 224.7L66.3 224.7L66.3 213.5L71.7 213.5L71.7 233.1L66.5 233.1L66.5 229.5L66.3 229.5Q65.6 231.3 64.1 232.3Q62.6 233.3 60.4 233.3L60.4 233.3Q58.4 233.3 56.9 232.5Q55.4 231.6 54.6 229.9Q53.7 228.3 53.7 226.0L53.7 226.0L53.7 213.5L59.1 213.5L59.1 225.0Q59.2 226.7 60.1 227.7Q61.0 228.7 62.5 228.7L62.5 228.7Q63.5 228.7 64.4 228.3Q65.2 227.8 65.8 226.9Q66.3 226.0 66.3 224.7ZM80.6 233.1L75.2 233.1L75.2 213.5L80.6 213.5L80.6 233.1ZM79.8 210.9L76.0 210.9L78.7 205.1L83.7 205.1L79.8 210.9ZM100.4 219.1L100.4 219.1L95.4 219.4Q95.3 218.7 94.9 218.2Q94.5 217.7 93.8 217.4Q93.1 217.1 92.1 217.1L92.1 217.1Q90.9 217.1 90.0 217.6Q89.1 218.1 89.1 219.0L89.1 219.0Q89.1 219.7 89.7 220.2Q90.3 220.7 91.6 221.0L91.6 221.0L95.2 221.7Q98.1 222.3 99.5 223.6Q100.9 224.9 100.9 227.0L100.9 227.0Q100.9 228.9 99.7 230.4Q98.6 231.9 96.6 232.7Q94.7 233.5 92.1 233.5L92.1 233.5Q88.2 233.5 85.9 231.8Q83.6 230.2 83.2 227.4L83.2 227.4L88.6 227.1Q88.8 228.3 89.7 228.9Q90.7 229.5 92.1 229.5L92.1 229.5Q93.6 229.5 94.4 229.0Q95.3 228.4 95.3 227.6L95.3 227.6Q95.3 226.8 94.7 226.3Q94.1 225.9 92.8 225.6L92.8 225.6L89.4 224.9Q86.5 224.3 85.1 222.9Q83.7 221.5 83.7 219.3L83.7 219.3Q83.7 217.4 84.8 216.0Q85.8 214.7 87.7 213.9Q89.5 213.2 92.1 213.2L92.1 213.2Q95.8 213.2 97.9 214.8Q100.1 216.3 100.4 219.1Z M116.5 233.1L111.0 233.1L111.0 206.9L121.3 206.9Q124.3 206.9 126.4 208.0Q128.5 209.0 129.6 210.9Q130.7 212.9 130.7 215.5L130.7 215.5Q130.7 218.1 129.5 219.9Q128.4 221.8 126.3 222.8Q124.2 223.8 121.1 223.8L121.1 223.8L114.2 223.8L114.2 219.4L120.2 219.4Q121.8 219.4 122.9 218.9Q123.9 218.5 124.4 217.6Q125.0 216.8 125.0 215.5L125.0 215.5Q125.0 214.2 124.4 213.3Q123.9 212.4 122.9 211.9Q121.8 211.4 120.2 211.4L120.2 211.4L116.5 211.4L116.5 233.1ZM119.1 221.2L125.1 221.2L131.6 233.1L125.5 233.1L119.1 221.2ZM142.2 233.5L142.2 233.5Q139.2 233.5 137.0 232.2Q134.8 231.0 133.6 228.7Q132.5 226.5 132.5 223.4L132.5 223.4Q132.5 220.3 133.6 218.0Q134.8 215.8 136.9 214.5Q139.1 213.2 142.0 213.2L142.0 213.2Q143.9 213.2 145.6 213.8Q147.3 214.4 148.5 215.7Q149.8 216.9 150.5 218.8Q151.2 220.7 151.2 223.2L151.2 223.2L151.2 224.7L134.6 224.7L134.6 221.3L146.1 221.3Q146.1 220.1 145.6 219.2Q145.1 218.3 144.2 217.8Q143.3 217.3 142.1 217.3L142.1 217.3Q140.8 217.3 139.9 217.8Q138.9 218.4 138.4 219.4Q137.8 220.3 137.8 221.5L137.8 221.5L137.8 224.7Q137.8 226.1 138.4 227.2Q138.9 228.3 139.9 228.8Q140.9 229.4 142.3 229.4L142.3 229.4Q143.2 229.4 143.9 229.2Q144.7 228.9 145.2 228.4Q145.8 227.9 146.1 227.1L146.1 227.1L151.1 227.5Q150.7 229.3 149.5 230.6Q148.3 232.0 146.5 232.7Q144.6 233.5 142.2 233.5ZM159.3 221.7L159.3 221.7L159.3 233.1L153.9 233.1L153.9 213.5L159.1 213.5L159.1 216.9L159.3 216.9Q159.9 215.2 161.5 214.2Q163.0 213.2 165.2 213.2L165.2 213.2Q167.2 213.2 168.8 214.1Q170.3 215.0 171.1 216.6Q172.0 218.3 172.0 220.6L172.0 220.6L172.0 233.1L166.5 233.1L166.5 221.6Q166.5 219.8 165.6 218.7Q164.7 217.7 163.0 217.7L163.0 217.7Q161.9 217.7 161.1 218.2Q160.3 218.7 159.8 219.6Q159.3 220.5 159.3 221.7ZM180.9 233.5L180.9 233.5Q179.1 233.5 177.6 232.8Q176.1 232.1 175.3 230.8Q174.4 229.5 174.4 227.6L174.4 227.6Q174.4 226.0 175.0 224.9Q175.6 223.7 176.7 223.1Q177.7 222.4 179.0 222.0Q180.3 221.7 181.8 221.6L181.8 221.6Q183.5 221.4 184.6 221.2Q185.6 221.1 186.1 220.7Q186.6 220.4 186.6 219.8L186.6 219.8L186.6 219.7Q186.6 218.5 185.8 217.8Q185.0 217.2 183.6 217.2L183.6 217.2Q182.2 217.2 181.3 217.8Q180.4 218.5 180.2 219.4L180.2 219.4L175.1 219.0Q175.5 217.2 176.6 215.9Q177.7 214.6 179.5 213.9Q181.3 213.2 183.7 213.2L183.7 213.2Q185.3 213.2 186.8 213.6Q188.3 214.0 189.5 214.8Q190.6 215.6 191.3 216.8Q192.0 218.1 192.0 219.8L192.0 219.8L192.0 233.1L186.8 233.1L186.8 230.4L186.7 230.4Q186.2 231.3 185.4 232.0Q184.6 232.7 183.5 233.1Q182.4 233.5 180.9 233.5ZM182.5 229.7L182.5 229.7Q183.7 229.7 184.6 229.2Q185.5 228.7 186.1 227.9Q186.6 227.1 186.6 226.1L186.6 226.1L186.6 224.0Q186.3 224.2 185.9 224.3Q185.5 224.4 184.9 224.5Q184.4 224.6 183.8 224.7Q183.3 224.8 182.8 224.9L182.8 224.9Q181.9 225.0 181.1 225.3Q180.4 225.6 180.0 226.1Q179.6 226.7 179.6 227.4L179.6 227.4Q179.6 228.5 180.4 229.1Q181.3 229.7 182.5 229.7ZM194.0 213.5L205.8 213.5L205.8 217.5L194.0 217.5L194.0 213.5ZM196.6 227.8L196.6 208.8L202.1 208.8L202.1 227.1Q202.1 227.8 202.3 228.2Q202.5 228.6 203.0 228.8Q203.4 229.0 203.9 229.0L203.9 229.0Q204.3 229.0 204.7 228.9Q205.1 228.8 205.3 228.8L205.3 228.8L206.1 232.8Q205.7 233.0 205.0 233.1Q204.2 233.3 203.2 233.4L203.2 233.4Q201.2 233.4 199.7 232.8Q198.3 232.2 197.4 231.0Q196.6 229.7 196.6 227.8L196.6 227.8ZM217.1 233.5L217.1 233.5Q214.1 233.5 211.9 232.2Q209.8 230.9 208.6 228.6Q207.4 226.4 207.4 223.3L207.4 223.3Q207.4 220.3 208.6 218.0Q209.8 215.7 211.9 214.5Q214.1 213.2 217.1 213.2L217.1 213.2Q220.1 213.2 222.2 214.5Q224.4 215.7 225.6 218.0Q226.8 220.3 226.8 223.3L226.8 223.3Q226.8 226.4 225.6 228.6Q224.4 230.9 222.2 232.2Q220.1 233.5 217.1 233.5ZM217.1 229.3L217.1 229.3Q218.5 229.3 219.4 228.5Q220.3 227.7 220.8 226.4Q221.2 225.0 221.2 223.3L221.2 223.3Q221.2 221.6 220.8 220.3Q220.3 218.9 219.4 218.1Q218.5 217.4 217.1 217.4L217.1 217.4Q215.7 217.4 214.8 218.1Q213.9 218.9 213.4 220.3Q213.0 221.6 213.0 223.3L213.0 223.3Q213.0 225.0 213.4 226.4Q213.9 227.7 214.8 228.5Q215.7 229.3 217.1 229.3Z M244.5 211.5L236.5 211.5L236.5 206.9L258.0 206.9L258.0 211.5L250.0 211.5L250.0 233.1L244.5 233.1L244.5 211.5ZM266.6 233.5L266.6 233.5Q263.6 233.5 261.4 232.2Q259.2 230.9 258.1 228.6Q256.9 226.4 256.9 223.3L256.9 223.3Q256.9 220.3 258.1 218.0Q259.2 215.7 261.4 214.5Q263.6 213.2 266.6 213.2L266.6 213.2Q269.5 213.2 271.7 214.5Q273.9 215.7 275.0 218.0Q276.2 220.3 276.2 223.3L276.2 223.3Q276.2 226.4 275.0 228.6Q273.9 230.9 271.7 232.2Q269.5 233.5 266.6 233.5ZM266.6 229.3L266.6 229.3Q267.9 229.3 268.8 228.5Q269.8 227.7 270.2 226.4Q270.7 225.0 270.7 223.3L270.7 223.3Q270.7 221.6 270.2 220.3Q269.8 218.9 268.8 218.1Q267.9 217.4 266.6 217.4L266.6 217.4Q265.2 217.4 264.3 218.1Q263.4 218.9 262.9 220.3Q262.4 221.6 262.4 223.3L262.4 223.3Q262.4 225.0 262.9 226.4Q263.4 227.7 264.3 228.5Q265.2 229.3 266.6 229.3ZM284.3 221.7L284.3 221.7L284.3 233.1L278.9 233.1L278.9 213.5L284.1 213.5L284.1 216.9L284.3 216.9Q285.0 215.2 286.5 214.2Q288.0 213.2 290.2 213.2L290.2 213.2Q292.3 213.2 293.8 214.1Q295.3 215.0 296.1 216.6Q297.0 218.3 297.0 220.6L297.0 220.6L297.0 233.1L291.5 233.1L291.5 221.6Q291.5 219.8 290.6 218.7Q289.7 217.7 288.0 217.7L288.0 217.7Q286.9 217.7 286.1 218.2Q285.3 218.7 284.8 219.6Q284.3 220.5 284.3 221.7ZM305.8 233.1L300.4 233.1L300.4 213.5L305.8 213.5L305.8 233.1ZM303.1 210.9L303.1 210.9Q301.9 210.9 301.0 210.1Q300.2 209.3 300.2 208.2L300.2 208.2Q300.2 207.0 301.0 206.2Q301.9 205.4 303.1 205.4L303.1 205.4Q304.3 205.4 305.2 206.2Q306.0 207.0 306.0 208.2L306.0 208.2Q306.0 209.3 305.2 210.1Q304.3 210.9 303.1 210.9ZM314.9 233.5L314.9 233.5Q313.0 233.5 311.5 232.8Q310.0 232.1 309.2 230.8Q308.3 229.5 308.3 227.6L308.3 227.6Q308.3 226.0 308.9 224.9Q309.5 223.7 310.6 223.1Q311.6 222.4 312.9 222.0Q314.3 221.7 315.7 221.6L315.7 221.6Q317.4 221.4 318.5 221.2Q319.5 221.1 320.0 220.7Q320.5 220.4 320.5 219.8L320.5 219.8L320.5 219.7Q320.5 218.5 319.7 217.8Q318.9 217.2 317.6 217.2L317.6 217.2Q316.1 217.2 315.2 217.8Q314.3 218.5 314.1 219.4L314.1 219.4L309.0 219.0Q309.4 217.2 310.5 215.9Q311.7 214.6 313.4 213.9Q315.2 213.2 317.6 213.2L317.6 213.2Q319.2 213.2 320.7 213.6Q322.2 214.0 323.4 214.8Q324.6 215.6 325.2 216.8Q325.9 218.1 325.9 219.8L325.9 219.8L325.9 233.1L320.7 233.1L320.7 230.4L320.6 230.4Q320.1 231.3 319.3 232.0Q318.5 232.7 317.4 233.1Q316.3 233.5 314.9 233.5ZM316.4 229.7L316.4 229.7Q317.6 229.7 318.5 229.2Q319.5 228.7 320.0 227.9Q320.5 227.1 320.5 226.1L320.5 226.1L320.5 224.0Q320.3 224.2 319.8 224.3Q319.4 224.4 318.8 224.5Q318.3 224.6 317.7 224.7Q317.2 224.8 316.7 224.9L316.7 224.9Q315.8 225.0 315.0 225.3Q314.3 225.6 313.9 226.1Q313.5 226.7 313.5 227.4L313.5 227.4Q313.5 228.5 314.4 229.1Q315.2 229.7 316.4 229.7ZM327.9 213.5L339.7 213.5L339.7 217.5L327.9 217.5L327.9 213.5ZM330.5 227.8L330.5 208.8L336.0 208.8L336.0 227.1Q336.0 227.8 336.2 228.2Q336.5 228.6 336.9 228.8Q337.3 229.0 337.8 229.0L337.8 229.0Q338.2 229.0 338.6 228.9Q339.0 228.8 339.2 228.8L339.2 228.8L340.0 232.8Q339.6 233.0 338.9 233.1Q338.2 233.3 337.1 233.4L337.1 233.4Q335.1 233.4 333.6 232.8Q332.2 232.2 331.4 231.0Q330.5 229.7 330.5 227.8L330.5 227.8ZM347.8 233.1L342.3 233.1L342.3 213.5L347.8 213.5L347.8 233.1ZM345.1 210.9L345.1 210.9Q343.9 210.9 343.0 210.1Q342.1 209.3 342.1 208.2L342.1 208.2Q342.1 207.0 343.0 206.2Q343.9 205.4 345.1 205.4L345.1 205.4Q346.3 205.4 347.1 206.2Q348.0 207.0 348.0 208.2L348.0 208.2Q348.0 209.3 347.1 210.1Q346.3 210.9 345.1 210.9Z "/><mask id="satori_om-id-0-0-1"><rect x="478" y="175" width="290" height="50" fill="#fff"/></mask><mask id="satori_ms-id-0-0-1-0-1" maskUnits="userSpaceOnUse"><rect x="0" y="0" width="800" height="400" fill="#fff"/><path x="478" y="175" width="100" height="50" fill="#000"  stroke-width="-2" d="M484,175 h88 a6,6 0 0 1 6,6 v38 a6,6 0 0 1 -6,6 h-88 a6,6 0 0 1 -6,-6 v-38 a6,6 0 0 1 6,-6"/></mask><mask id="satori_ms-id-0-0-1-0-1-neg" maskUnits="userSpaceOnUse"><path x="478" y="176" width="100" height="50" fill="#fff" stroke="#000" stroke-width="2" d="M484,176 h88 a6,6 0 0 1 6,6 v38 a6,6 0 0 1 -6,6 h-88 a6,6 0 0 1 -6,-6 v-38 a6,6 0 0 1 6,-6"/></mask><defs><filter id="satori_s-id-0-0-1-0-1" x="0%" y="0%" width="100%" height="100%"><feGaussianBlur stdDeviation="1" result="b"/><feFlood flood-color="rgba(0, 0, 0, 0.1)" in="SourceGraphic" result="f"/><feComposite in="f" in2="b" operator="in"/></filter></defs><g mask="url(#satori_ms-id-0-0-1-0-1)" filter="url(#satori_s-id-0-0-1-0-1)" opacity="1"><g mask="url(#satori_ms-id-0-0-1-0-1-neg)"><path x="478" y="176" width="100" height="50" fill="#fff" stroke="#fff" stroke-width="-2" d="M484,176 h88 a6,6 0 0 1 6,6 v38 a6,6 0 0 1 -6,6 h-88 a6,6 0 0 1 -6,-6 v-38 a6,6 0 0 1 6,-6"/></g></g><mask id="satori_ms-id-0-0-1-0-0" maskUnits="userSpaceOnUse"><rect x="0" y="0" width="800" height="400" fill="#fff"/><path x="478" y="175" width="100" height="50" fill="#000"  stroke-width="0" d="M484,175 h88 a6,6 0 0 1 6,6 v38 a6,6 0 0 1 -6,6 h-88 a6,6 0 0 1 -6,-6 v-38 a6,6 0 0 1 6,-6"/></mask><defs><filter id="satori_s-id-0-0-1-0-0" x="-2.25%" y="-4.5%" width="104.5%" height="109.00000000000001%"><feGaussianBlur stdDeviation="1.5" result="b"/><feFlood flood-color="rgba(0, 0, 0, 0.1)" in="SourceGraphic" result="f"/><feComposite in="f" in2="b" operator="in"/></filter></defs><g mask="url(#satori_ms-id-0-0-1-0-0)" filter="url(#satori_s-id-0-0-1-0-0)" opacity="1"><path x="478" y="176" width="100" height="50" fill="#fff" stroke="#fff" stroke-width="0" d="M484,176 h88 a6,6 0 0 1 6,6 v38 a6,6 0 0 1 -6,6 h-88 a6,6 0 0 1 -6,-6 v-38 a6,6 0 0 1 6,-6"/></g><mask id="satori_om-id-0-0-1-0"><rect x="478" y="175" width="100" height="50" fill="#fff"/></mask><defs><clipPath id="satori_bc-id-0-0-1-0-0"><path x="478" y="175" width="100" height="50" d="M484,175 h88 a6,6 0 0 1 6,6 v38 a6,6 0 0 1 -6,6 h-88 a6,6 0 0 1 -6,-6 v-38 a6,6 0 0 1 6,-6"/></clipPath></defs><mask id="satori_om-id-0-0-1-0-0"><rect x="479" y="176" width="98" height="48" fill="#fff"/><path width="100" height="50" fill="none" stroke="#000" stroke-width="2" d="M479.757,176.757 A6,6 0 0 1 484,175 h88 a6,6 0 0 1 6,6 v38 a6,6 0 0 1 -6,6 h-88 a6,6 0 0 1 -6,-6 v-38 A6,6 0 0 1 479.757,176.757"/></mask><path x="478" y="175" width="100" height="50" fill="#475569" d="M484,175 h88 a6,6 0 0 1 6,6 v38 a6,6 0 0 1 -6,6 h-88 a6,6 0 0 1 -6,-6 v-38 a6,6 0 0 1 6,-6"/><path width="100" height="50" clip-path="url(#satori_bc-id-0-0-1-0-0)" fill="none" stroke="transparent" stroke-width="2" d="M479.757,176.757 A6,6 0 0 1 484,175 h88 a6,6 0 0 1 6,6 v38 a6,6 0 0 1 -6,6 h-88 a6,6 0 0 1 -6,-6 v-38 A6,6 0 0 1 479.757,176.757"/><path fill="#fff" d="M499.4 194.2L500.9 194.2L504.3 204.0L504.5 204.0L507.9 194.2L509.4 194.2L505.1 205.8L503.7 205.8L499.4 194.2ZM513.9 206L513.9 206Q512.6 206 511.7 205.4Q510.8 204.9 510.3 203.9Q509.8 202.9 509.8 201.5L509.8 201.5Q509.8 200.2 510.3 199.2Q510.8 198.1 511.7 197.6Q512.6 197.0 513.8 197.0L513.8 197.0Q514.4 197.0 515.1 197.2Q515.8 197.4 516.3 197.9Q516.9 198.4 517.2 199.3Q517.5 200.1 517.5 201.3L517.5 201.3L517.5 201.9L510.8 201.9L510.8 200.8L516.1 200.8Q516.1 200.0 515.8 199.4Q515.6 198.9 515.0 198.5Q514.5 198.2 513.8 198.2L513.8 198.2Q512.9 198.2 512.4 198.6Q511.8 199.0 511.5 199.6Q511.2 200.2 511.2 201.0L511.2 201.0L511.2 201.7Q511.2 202.7 511.5 203.4Q511.8 204.1 512.5 204.4Q513.1 204.8 513.9 204.8L513.9 204.8Q514.4 204.8 514.8 204.6Q515.3 204.5 515.6 204.2Q515.9 203.9 516.1 203.4L516.1 203.4L517.4 203.8Q517.2 204.5 516.7 205.0Q516.2 205.4 515.5 205.7Q514.8 206 513.9 206ZM520.9 205.8L519.5 205.8L519.5 197.1L520.8 197.1L520.8 198.4L520.9 198.4Q521.2 197.8 521.8 197.4Q522.4 197.0 523.2 197.0L523.2 197.0Q523.4 197.0 523.6 197.0Q523.8 197.0 523.9 197.0L523.9 197.0L523.9 198.3Q523.8 198.3 523.6 198.3Q523.4 198.3 523.1 198.3L523.1 198.3Q522.5 198.3 522.0 198.5Q521.5 198.8 521.2 199.2Q520.9 199.7 520.9 200.3L520.9 200.3L520.9 205.8Z M537 199.0L537 199.0L535.8 199.4Q535.7 199.1 535.5 198.8Q535.2 198.5 534.9 198.3Q534.5 198.1 533.9 198.1L533.9 198.1Q533.1 198.1 532.6 198.5Q532.0 198.9 532.0 199.4L532.0 199.4Q532.0 199.9 532.4 200.2Q532.8 200.5 533.5 200.7L533.5 200.7L534.8 201.0Q536.0 201.3 536.6 201.9Q537.2 202.5 537.2 203.4L537.2 203.4Q537.2 204.1 536.7 204.7Q536.3 205.3 535.5 205.7Q534.8 206 533.8 206L533.8 206Q532.4 206 531.5 205.4Q530.7 204.8 530.4 203.7L530.4 203.7L531.7 203.4Q531.9 204.1 532.4 204.5Q532.9 204.8 533.7 204.8L533.7 204.8Q534.7 204.8 535.2 204.4Q535.8 204.0 535.8 203.5L535.8 203.5Q535.8 203 535.5 202.7Q535.1 202.4 534.5 202.2L534.5 202.2L533.0 201.9Q531.8 201.6 531.3 201.0Q530.7 200.4 530.7 199.5L530.7 199.5Q530.7 198.8 531.1 198.2Q531.5 197.6 532.3 197.3Q533.0 197.0 533.9 197.0L533.9 197.0Q535.2 197.0 535.9 197.5Q536.7 198.1 537 199.0ZM540.5 205.8L539.2 205.8L539.2 197.1L540.5 197.1L540.5 205.8ZM539.9 195.6L539.9 195.6Q539.5 195.6 539.2 195.4Q538.9 195.1 538.9 194.7L538.9 194.7Q538.9 194.4 539.2 194.1Q539.5 193.8 539.9 193.8L539.9 193.8Q540.3 193.8 540.5 194.1Q540.8 194.4 540.8 194.7L540.8 194.7Q540.8 195.1 540.5 195.4Q540.3 195.6 539.9 195.6ZM542.3 197.1L546.8 197.1L546.8 198.2L542.3 198.2L542.3 197.1ZM543.6 203.7L543.6 195L544.9 195L544.9 203.3Q544.9 203.9 545.1 204.2Q545.2 204.4 545.5 204.5Q545.8 204.6 546.1 204.6L546.1 204.6Q546.3 204.6 546.4 204.6Q546.6 204.6 546.7 204.6L546.7 204.6L546.9 205.8Q546.8 205.8 546.6 205.9Q546.3 205.9 545.9 205.9L545.9 205.9Q545.4 205.9 544.8 205.7Q544.3 205.4 543.9 204.9Q543.6 204.4 543.6 203.7L543.6 203.7ZM552.4 206L552.4 206Q551.1 206 550.2 205.4Q549.3 204.9 548.8 203.9Q548.3 202.9 548.3 201.5L548.3 201.5Q548.3 200.2 548.8 199.2Q549.3 198.1 550.2 197.6Q551.0 197.0 552.2 197.0L552.2 197.0Q552.9 197.0 553.6 197.2Q554.2 197.4 554.8 197.9Q555.3 198.4 555.7 199.3Q556.0 200.1 556.0 201.3L556.0 201.3L556.0 201.9L549.3 201.9L549.3 200.8L554.6 200.8Q554.6 200.0 554.3 199.4Q554.0 198.9 553.5 198.5Q553.0 198.2 552.2 198.2L552.2 198.2Q551.4 198.2 550.8 198.6Q550.3 199.0 549.9 199.6Q549.6 200.2 549.6 201.0L549.6 201.0L549.6 201.7Q549.6 202.7 550.0 203.4Q550.3 204.1 550.9 204.4Q551.6 204.8 552.4 204.8L552.4 204.8Q552.9 204.8 553.3 204.6Q553.8 204.5 554.1 204.2Q554.4 203.9 554.5 203.4L554.5 203.4L555.8 203.8Q555.6 204.5 555.2 205.0Q554.7 205.4 554.0 205.7Q553.3 206 552.4 206Z "/><mask id="satori_ms-id-0-0-1-1-1" maskUnits="userSpaceOnUse"><rect x="0" y="0" width="800" height="400" fill="#fff"/><path x="590" y="175" width="178" height="50" fill="#000"  stroke-width="-2" d="M596,175 h166 a6,6 0 0 1 6,6 v38 a6,6 0 0 1 -6,6 h-166 a6,6 0 0 1 -6,-6 v-38 a6,6 0 0 1 6,-6"/></mask><mask id="satori_ms-id-0-0-1-1-1-neg" maskUnits="userSpaceOnUse"><path x="590" y="176" width="178" height="50" fill="#fff" stroke="#000" stroke-width="2" d="M596,176 h166 a6,6 0 0 1 6,6 v38 a6,6 0 0 1 -6,6 h-166 a6,6 0 0 1 -6,-6 v-38 a6,6 0 0 1 6,-6"/></mask><defs><filter id="satori_s-id-0-0-1-1-1" x="0%" y="0%" width="100%" height="100%"><feGaussianBlur stdDeviation="1" result="b"/><feFlood flood-color="rgba(0, 0, 0, 0.1)" in="SourceGraphic" result="f"/><feComposite in="f" in2="b" operator="in"/></filter></defs><g mask="url(#satori_ms-id-0-0-1-1-1)" filter="url(#satori_s-id-0-0-1-1-1)" opacity="1"><g mask="url(#satori_ms-id-0-0-1-1-1-neg)"><path x="590" y="176" width="178" height="50" fill="#fff" stroke="#fff" stroke-width="-2" d="M596,176 h166 a6,6 0 0 1 6,6 v38 a6,6 0 0 1 -6,6 h-166 a6,6 0 0 1 -6,-6 v-38 a6,6 0 0 1 6,-6"/></g></g><mask id="satori_ms-id-0-0-1-1-0" maskUnits="userSpaceOnUse"><rect x="0" y="0" width="800" height="400" fill="#fff"/><path x="590" y="175" width="178" height="50" fill="#000"  stroke-width="0" d="M596,175 h166 a6,6 0 0 1 6,6 v38 a6,6 0 0 1 -6,6 h-166 a6,6 0 0 1 -6,-6 v-38 a6,6 0 0 1 6,-6"/></mask><defs><filter id="satori_s-id-0-0-1-1-0" x="-1.2640449438202246%" y="-4.5%" width="102.52808988764043%" height="109.00000000000001%"><feGaussianBlur stdDeviation="1.5" result="b"/><feFlood flood-color="rgba(0, 0, 0, 0.1)" in="SourceGraphic" result="f"/><feComposite in="f" in2="b" operator="in"/></filter></defs><g mask="url(#satori_ms-id-0-0-1-1-0)" filter="url(#satori_s-id-0-0-1-1-0)" opacity="1"><path x="590" y="176" width="178" height="50" fill="#fff" stroke="#fff" stroke-width="0" d="M596,176 h166 a6,6 0 0 1 6,6 v38 a6,6 0 0 1 -6,6 h-166 a6,6 0 0 1 -6,-6 v-38 a6,6 0 0 1 6,-6"/></g><mask id="satori_om-id-0-0-1-1"><rect x="590" y="175" width="178" height="50" fill="#fff"/></mask><defs><clipPath id="satori_bc-id-0-0-1-1-0"><path x="590" y="175" width="178" height="50" d="M596,175 h166 a6,6 0 0 1 6,6 v38 a6,6 0 0 1 -6,6 h-166 a6,6 0 0 1 -6,-6 v-38 a6,6 0 0 1 6,-6"/></clipPath></defs><mask id="satori_om-id-0-0-1-1-0"><rect x="591" y="176" width="176" height="48" fill="#fff"/><path width="178" height="50" fill="none" stroke="#000" stroke-width="2" d="M591.757,176.757 A6,6 0 0 1 596,175 h166 a6,6 0 0 1 6,6 v38 a6,6 0 0 1 -6,6 h-166 a6,6 0 0 1 -6,-6 v-38 A6,6 0 0 1 591.757,176.757"/></mask><path x="590" y="175" width="178" height="50" fill="#7dd3fc" d="M596,175 h166 a6,6 0 0 1 6,6 v38 a6,6 0 0 1 -6,6 h-166 a6,6 0 0 1 -6,-6 v-38 a6,6 0 0 1 6,-6"/><path width="178" height="50" clip-path="url(#satori_bc-id-0-0-1-1-0)" fill="none" stroke="transparent" stroke-width="2" d="M591.757,176.757 A6,6 0 0 1 596,175 h166 a6,6 0 0 1 6,6 v38 a6,6 0 0 1 -6,6 h-166 a6,6 0 0 1 -6,-6 v-38 A6,6 0 0 1 591.757,176.757"/><path fill="#0f172a" d="M619.5 205.8L612.4 205.8L612.4 194.2L619.4 194.2L619.4 195.4L613.8 195.4L613.8 199.4L619.1 199.4L619.1 200.6L613.8 200.6L613.8 204.6L619.5 204.6L619.5 205.8ZM623.1 200.6L623.1 200.6L623.1 205.8L621.8 205.8L621.8 197.1L623.1 197.1L623.1 198.5L623.2 198.5Q623.5 197.8 624.1 197.4Q624.8 197.0 625.8 197.0L625.8 197.0Q626.6 197.0 627.3 197.3Q628.0 197.7 628.3 198.4Q628.7 199.2 628.7 200.3L628.7 200.3L628.7 205.8L627.4 205.8L627.4 200.4Q627.4 199.3 626.8 198.8Q626.3 198.2 625.4 198.2L625.4 198.2Q624.7 198.2 624.2 198.5Q623.7 198.7 623.4 199.3Q623.1 199.8 623.1 200.6ZM630.4 197.1L635.0 197.1L635.0 198.2L630.4 198.2L630.4 197.1ZM631.8 203.7L631.8 195L633.1 195L633.1 203.3Q633.1 203.9 633.3 204.2Q633.4 204.4 633.7 204.5Q634.0 204.6 634.3 204.6L634.3 204.6Q634.5 204.6 634.6 204.6Q634.8 204.6 634.8 204.6L634.8 204.6L635.1 205.8Q635.0 205.8 634.7 205.9Q634.5 205.9 634.1 205.9L634.1 205.9Q633.5 205.9 633.0 205.7Q632.5 205.4 632.1 204.9Q631.8 204.4 631.8 203.7L631.8 203.7ZM638.3 205.8L637.0 205.8L637.0 197.1L638.3 197.1L638.3 198.4L638.4 198.4Q638.6 197.8 639.2 197.4Q639.9 197.0 640.6 197.0L640.6 197.0Q640.8 197.0 641.0 197.0Q641.2 197.0 641.3 197.0L641.3 197.0L641.3 198.3Q641.3 198.3 641.0 198.3Q640.8 198.3 640.5 198.3L640.5 198.3Q639.9 198.3 639.4 198.5Q638.9 198.8 638.6 199.2Q638.3 199.7 638.3 200.3L638.3 200.3L638.3 205.8ZM645.5 206.0L645.5 206.0Q644.7 206.0 644.0 205.7Q643.3 205.4 642.9 204.8Q642.5 204.2 642.5 203.3L642.5 203.3Q642.5 202.6 642.8 202.1Q643.1 201.7 643.6 201.4Q644.1 201.1 644.7 201.0Q645.3 200.9 645.9 200.8L645.9 200.8Q646.7 200.7 647.2 200.6Q647.7 200.6 647.9 200.4Q648.2 200.3 648.2 200.0L648.2 200.0L648.2 199.9Q648.2 199.1 647.7 198.6Q647.2 198.2 646.3 198.2L646.3 198.2Q645.4 198.2 644.8 198.6Q644.3 199 644.0 199.5L644.0 199.5L642.8 199.0Q643.1 198.2 643.7 197.8Q644.3 197.3 644.9 197.2Q645.6 197.0 646.3 197.0L646.3 197.0Q646.7 197.0 647.2 197.1Q647.8 197.2 648.3 197.5Q648.8 197.8 649.2 198.4Q649.5 199.0 649.5 200.1L649.5 200.1L649.5 205.8L648.2 205.8L648.2 204.6L648.1 204.6Q648.0 204.9 647.6 205.2Q647.3 205.6 646.8 205.8Q646.3 206.0 645.5 206.0ZM645.7 204.8L645.7 204.8Q646.5 204.8 647.0 204.5Q647.6 204.2 647.9 203.7Q648.2 203.2 648.2 202.7L648.2 202.7L648.2 201.4Q648.1 201.5 647.8 201.6Q647.5 201.7 647.1 201.8Q646.8 201.8 646.4 201.9Q646.1 201.9 645.8 201.9L645.8 201.9Q645.3 202 644.9 202.2Q644.4 202.3 644.1 202.6Q643.9 202.9 643.9 203.4L643.9 203.4Q643.9 204.1 644.4 204.5Q644.9 204.8 645.7 204.8ZM653.3 205.8L652.0 205.8L652.0 197.1L653.3 197.1L653.3 198.4L653.3 198.4Q653.6 197.8 654.2 197.4Q654.8 197.0 655.6 197.0L655.6 197.0Q655.8 197.0 656.0 197.0Q656.2 197.0 656.3 197.0L656.3 197.0L656.3 198.3Q656.3 198.3 656.0 198.3Q655.8 198.3 655.5 198.3L655.5 198.3Q654.9 198.3 654.4 198.5Q653.9 198.8 653.6 199.2Q653.3 199.7 653.3 200.3L653.3 200.3L653.3 205.8Z M666.1 206L666.1 206Q664.8 206 663.9 205.4Q663.0 204.9 662.5 203.9Q662 202.9 662 201.5L662 201.5Q662 200.2 662.5 199.2Q663.0 198.1 663.9 197.6Q664.8 197.0 665.9 197.0L665.9 197.0Q666.6 197.0 667.3 197.2Q667.9 197.4 668.5 197.9Q669.0 198.4 669.4 199.3Q669.7 200.1 669.7 201.3L669.7 201.3L669.7 201.9L663.0 201.9L663.0 200.8L668.3 200.8Q668.3 200.0 668.0 199.4Q667.7 198.9 667.2 198.5Q666.7 198.2 665.9 198.2L665.9 198.2Q665.1 198.2 664.5 198.6Q664.0 199.0 663.7 199.6Q663.3 200.2 663.3 201.0L663.3 201.0L663.3 201.7Q663.3 202.7 663.7 203.4Q664.0 204.1 664.6 204.4Q665.3 204.8 666.1 204.8L666.1 204.8Q666.6 204.8 667.0 204.6Q667.5 204.5 667.8 204.2Q668.1 203.9 668.3 203.4L668.3 203.4L669.5 203.8Q669.3 204.5 668.9 205.0Q668.4 205.4 667.7 205.7Q667.0 206 666.1 206ZM673.1 205.8L671.7 205.8L671.7 197.1L673.0 197.1L673.0 198.5L673.1 198.5Q673.4 197.8 674.0 197.4Q674.6 197.0 675.5 197.0L675.5 197.0Q676.3 197.0 676.9 197.4Q677.5 197.8 677.8 198.5L677.8 198.5L677.9 198.5Q678.2 197.8 678.9 197.4Q679.6 197.0 680.5 197.0L680.5 197.0Q681.7 197.0 682.4 197.7Q683.2 198.4 683.2 200.0L683.2 200.0L683.2 205.8L681.8 205.8L681.8 200.0Q681.8 199.0 681.3 198.6Q680.8 198.2 680.1 198.2L680.1 198.2Q679.1 198.2 678.6 198.7Q678.1 199.3 678.1 200.1L678.1 200.1L678.1 205.8L676.8 205.8L676.8 199.8Q676.8 199.1 676.3 198.6Q675.8 198.2 675.0 198.2L675.0 198.2Q674.5 198.2 674.1 198.5Q673.6 198.7 673.3 199.2Q673.1 199.7 673.1 200.4L673.1 200.4L673.1 205.8Z M693.7 206L693.7 206Q692.5 206 691.6 205.4Q690.7 204.8 690.2 203.8Q689.7 202.8 689.7 201.5L689.7 201.5Q689.7 200.2 690.2 199.2Q690.7 198.1 691.6 197.6Q692.5 197.0 693.7 197.0L693.7 197.0Q694.6 197.0 695.3 197.3Q696.1 197.7 696.5 198.3Q697 198.9 697.1 199.7L697.1 199.7L695.8 199.7Q695.6 199.1 695.1 198.6Q694.6 198.2 693.7 198.2L693.7 198.2Q692.9 198.2 692.3 198.6Q691.7 199.0 691.4 199.7Q691.1 200.5 691.1 201.5L691.1 201.5Q691.1 202.5 691.4 203.2Q691.7 204.0 692.3 204.4Q692.9 204.8 693.7 204.8L693.7 204.8Q694.2 204.8 694.6 204.6Q695.1 204.4 695.4 204.1Q695.6 203.8 695.8 203.3L695.8 203.3L697.1 203.3Q697 204.0 696.6 204.7Q696.1 205.3 695.4 205.6Q694.6 206 693.7 206ZM702.6 206L702.6 206Q701.4 206 700.5 205.4Q699.7 204.9 699.2 203.9Q698.7 202.9 698.7 201.5L698.7 201.5Q698.7 200.1 699.2 199.1Q699.7 198.1 700.5 197.5Q701.4 197.0 702.6 197.0L702.6 197.0Q703.8 197.0 704.7 197.5Q705.6 198.1 706.1 199.1Q706.6 200.1 706.6 201.5L706.6 201.5Q706.6 202.9 706.1 203.9Q705.6 204.9 704.7 205.4Q703.8 206 702.6 206ZM702.6 204.8L702.6 204.8Q703.5 204.8 704.1 204.3Q704.7 203.9 704.9 203.1Q705.2 202.4 705.2 201.5L705.2 201.5Q705.2 200.6 704.9 199.9Q704.7 199.1 704.1 198.6Q703.5 198.2 702.6 198.2L702.6 198.2Q701.7 198.2 701.1 198.6Q700.6 199.1 700.3 199.9Q700.0 200.6 700.0 201.5L700.0 201.5Q700.0 202.4 700.3 203.1Q700.6 203.9 701.1 204.3Q701.7 204.8 702.6 204.8ZM710.0 200.6L710.0 200.6L710.0 205.8L708.6 205.8L708.6 197.1L709.9 197.1L709.9 198.5L710.0 198.5Q710.3 197.8 711.0 197.4Q711.6 197.0 712.6 197.0L712.6 197.0Q713.5 197.0 714.1 197.3Q714.8 197.7 715.2 198.4Q715.5 199.2 715.5 200.3L715.5 200.3L715.5 205.8L714.2 205.8L714.2 200.4Q714.2 199.3 713.6 198.8Q713.1 198.2 712.2 198.2L712.2 198.2Q711.5 198.2 711.0 198.5Q710.5 198.7 710.2 199.3Q710.0 199.8 710.0 200.6ZM717.2 197.1L721.8 197.1L721.8 198.2L717.2 198.2L717.2 197.1ZM718.6 203.7L718.6 195L719.9 195L719.9 203.3Q719.9 203.9 720.1 204.2Q720.2 204.4 720.5 204.5Q720.8 204.6 721.1 204.6L721.1 204.6Q721.3 204.6 721.4 204.6Q721.6 204.6 721.7 204.6L721.7 204.6L721.9 205.8Q721.8 205.8 721.6 205.9Q721.3 205.9 720.9 205.9L720.9 205.9Q720.4 205.9 719.8 205.7Q719.3 205.4 718.9 204.9Q718.6 204.4 718.6 203.7L718.6 203.7ZM726.4 206.0L726.4 206.0Q725.5 206.0 724.9 205.7Q724.2 205.4 723.8 204.8Q723.4 204.2 723.4 203.3L723.4 203.3Q723.4 202.6 723.7 202.1Q724.0 201.7 724.5 201.4Q725.0 201.1 725.6 201.0Q726.2 200.9 726.8 200.8L726.8 200.8Q727.6 200.7 728.1 200.6Q728.6 200.6 728.8 200.4Q729.0 200.3 729.0 200.0L729.0 200.0L729.0 199.9Q729.0 199.1 728.6 198.6Q728.1 198.2 727.2 198.2L727.2 198.2Q726.2 198.2 725.7 198.6Q725.1 199 724.9 199.5L724.9 199.5L723.6 199.0Q724.0 198.2 724.5 197.8Q725.1 197.3 725.8 197.2Q726.5 197.0 727.1 197.0L727.1 197.0Q727.6 197.0 728.1 197.1Q728.7 197.2 729.2 197.5Q729.7 197.8 730.0 198.4Q730.4 199.0 730.4 200.1L730.4 200.1L730.4 205.8L729.0 205.8L729.0 204.6L729.0 204.6Q728.8 204.9 728.5 205.2Q728.2 205.6 727.7 205.8Q727.1 206.0 726.4 206.0ZM726.6 204.8L726.6 204.8Q727.4 204.8 727.9 204.5Q728.5 204.2 728.7 203.7Q729.0 203.2 729.0 202.7L729.0 202.7L729.0 201.4Q728.9 201.5 728.7 201.6Q728.4 201.7 728.0 201.8Q727.6 201.8 727.3 201.9Q726.9 201.9 726.7 201.9L726.7 201.9Q726.2 202 725.7 202.2Q725.3 202.3 725.0 202.6Q724.7 202.9 724.7 203.4L724.7 203.4Q724.7 204.1 725.2 204.5Q725.8 204.8 726.6 204.8ZM732.1 197.1L736.6 197.1L736.6 198.2L732.1 198.2L732.1 197.1ZM733.4 203.7L733.4 195L734.7 195L734.7 203.3Q734.7 203.9 734.9 204.2Q735.1 204.4 735.3 204.5Q735.6 204.6 735.9 204.6L735.9 204.6Q736.1 204.6 736.3 204.6Q736.4 204.6 736.5 204.6L736.5 204.6L736.8 205.8Q736.6 205.8 736.4 205.9Q736.1 205.9 735.8 205.9L735.8 205.9Q735.2 205.9 734.7 205.7Q734.1 205.4 733.8 204.9Q733.4 204.4 733.4 203.7L733.4 203.7ZM742.1 206L742.1 206Q740.9 206 740.0 205.4Q739.1 204.9 738.6 203.9Q738.1 202.9 738.1 201.5L738.1 201.5Q738.1 200.1 738.6 199.1Q739.1 198.1 740.0 197.5Q740.9 197.0 742.1 197.0L742.1 197.0Q743.3 197.0 744.2 197.5Q745.1 198.1 745.5 199.1Q746.0 200.1 746.0 201.5L746.0 201.5Q746.0 202.9 745.5 203.9Q745.1 204.9 744.2 205.4Q743.3 206 742.1 206ZM742.1 204.8L742.1 204.8Q743.0 204.8 743.6 204.3Q744.1 203.9 744.4 203.1Q744.7 202.4 744.7 201.5L744.7 201.5Q744.7 200.6 744.4 199.9Q744.1 199.1 743.6 198.6Q743.0 198.2 742.1 198.2L742.1 198.2Q741.2 198.2 740.6 198.6Q740.0 199.1 739.8 199.9Q739.5 200.6 739.5 201.5L739.5 201.5Q739.5 202.4 739.8 203.1Q740.0 203.9 740.6 204.3Q741.2 204.8 742.1 204.8Z "/></svg>