<svg xmlns="http://www.w3.org/2000/svg" width="256" height="256" viewBox="0 0 100 100"><rect width="100" height="100" rx="50" fill="#000000"></rect><path d="M39.91 76.92L39.91 76.92Q36.74 74.90 35.06 74.90Q33.37 74.90 31.79 75.91Q30.21 76.92 29.30 76.92L29.30 76.92Q27.11 76.92 24.48 73.08L24.48 73.08Q24.01 74.22 22.96 75.13L22.96 75.13Q20.97 76.92 19.34 76.92Q17.71 76.92 16.83 76.41Q15.95 75.91 15.82 75.40L15.82 75.40L15.69 74.90Q17.98 73.42 18.55 72.20L18.55 72.20Q18.82 71.56 19.04 71.14Q19.26 70.72 19.37 69.81Q19.49 68.90 19.58 68.34Q19.66 67.79 19.69 66.51Q19.73 65.23 19.73 64.45L19.73 64.45L19.73 61.93Q19.73 54.14 17.34 51.31L17.34 51.31Q16.80 50.67 16.43 50.34Q16.06 50 16.06 49.70Q16.06 49.39 16.43 49.06Q16.80 48.72 17.35 48.08Q17.91 47.44 18.45 46.29L18.45 46.29Q19.73 43.56 19.73 37.75Q19.73 31.94 18.84 29.36Q17.94 26.79 15.65 24.60L15.65 24.60Q15.65 23.38 17.54 22.81L17.54 22.81Q18.25 22.61 19.27 22.61Q20.30 22.61 21.29 22.98Q22.29 23.35 22.90 23.86L22.90 23.86Q24.18 24.90 24.78 26.15L24.78 26.15Q24.95 25.81 25.61 25.05Q26.26 24.29 26.87 23.82L26.87 23.82Q28.52 22.61 29.89 22.61Q31.25 22.61 31.98 22.81Q32.70 23.01 33.04 23.32L33.04 23.32Q33.78 23.99 33.88 24.60L33.88 24.60Q31.59 26.79 30.69 29.36Q29.80 31.94 29.80 36.03Q29.80 40.13 30.17 42.64Q30.54 45.15 31.08 46.29Q31.62 47.44 32.18 48.08Q32.73 48.72 33.10 49.06Q33.47 49.39 33.47 49.70Q33.47 50 33.10 50.34Q32.73 50.67 32.18 51.33Q31.62 51.99 31.08 53.10L31.08 53.10Q29.80 55.73 29.80 61.93L29.80 61.93L29.77 65.70Q29.77 67.18 29.97 67.62Q30.17 68.06 30.88 68.06L30.88 68.06L34.25 67.86Q36.44 67.86 37.52 67.35Q38.60 66.85 39.91 65.53L39.91 65.53Q40.72 65.53 41.12 66.81L41.12 66.81Q41.26 67.28 41.26 68.02Q41.26 68.77 40.79 69.57L40.79 69.57Q40.08 70.79 39.34 71.19L39.34 71.19Q41.26 72.81 41.26 74.53L41.26 74.53Q41.26 76.58 39.91 76.92ZM54.19 73.38L54.19 73.38Q54.03 73.72 53.37 74.48Q52.71 75.23 52.11 75.71L52.11 75.71Q50.45 76.92 48.79 76.92Q47.12 76.92 46.24 76.41Q45.37 75.91 45.23 75.40L45.23 75.40L45.10 74.90Q47.32 72.88 48.25 69.88Q49.17 66.88 49.17 62.95Q49.17 59.03 48.80 56.67Q48.43 54.31 47.89 53.17Q47.36 52.02 46.80 51.35Q46.24 50.67 45.87 50.35Q45.50 50.03 45.50 49.71Q45.50 49.39 45.87 49.04Q46.24 48.69 46.80 48.01Q47.36 47.34 47.89 46.13L47.89 46.13Q49.17 43.30 49.17 37.45Q49.17 31.60 48.28 29.18Q47.39 26.75 45.10 24.60L45.10 24.60Q45.10 23.38 46.95 22.81L46.95 22.81Q47.69 22.61 48.75 22.61Q49.81 22.61 50.93 22.96Q52.04 23.32 52.81 23.82L52.81 23.82Q54.36 24.83 55.31 25.98L55.31 25.98Q55.47 25.51 56.15 24.87Q56.82 24.23 57.66 23.79L57.66 23.79Q59.96 22.61 62.82 22.61Q65.68 22.61 67.12 22.71Q68.55 22.81 69.96 23.06Q71.38 23.32 72.52 23.74Q73.67 24.16 74.68 24.83Q75.69 25.51 76.40 26.38L76.40 26.38Q77.91 28.27 78.17 30.43Q78.42 32.58 78.86 33.64Q79.29 34.70 79.70 35.18L79.70 35.18Q80.81 36.39 80.81 36.57Q80.81 36.76 80.47 37.16Q80.14 37.57 79.70 38.17L79.70 38.17Q78.59 39.76 78.33 42.39Q78.08 45.01 76.63 46.73Q75.18 48.45 72.99 48.65L72.99 48.65Q76.97 49.97 78.22 54.28L78.22 54.28Q78.89 56.74 79.33 61.12Q79.77 65.50 80.17 67.62L80.17 67.62Q81.08 72.37 84.35 74.46L84.35 74.46Q81.45 77.39 76.77 77.39L76.77 77.39Q74.17 77.39 72.42 75.98Q70.67 74.56 69.88 72.30Q69.09 70.05 68.67 67.33Q68.24 64.62 68.06 61.89Q67.87 59.16 67.57 56.91L67.57 56.91Q66.83 51.82 64.13 51.82L64.13 51.82L59.62 51.82L59.62 62.26Q59.62 67.22 60.43 69.89Q61.24 72.57 63.36 74.90L63.36 74.90Q63.36 76.14 61.51 76.72L61.51 76.72Q60.76 76.92 59.80 76.92Q58.84 76.92 57.90 76.55Q56.96 76.18 56.32 75.67L56.32 75.67Q54.97 74.63 54.19 73.38ZM67.37 31.37Q67.37 30.49 66.39 29.75Q65.41 29.01 63.98 29.01Q62.55 29.01 61.08 29.55Q59.62 30.09 59.62 30.69L59.62 30.69L59.62 46.56Q63.59 46.56 65.48 45.67Q67.37 44.78 67.37 42.79L67.37 42.79L67.37 31.37Z" fill="#ffffff"></path></svg>